# xmcd
#
# Track frame offsets: 
#        150
#        13647
#        24407
#        42948
#        55896
#        68929
#        83997
#        103814
#        119095
#
# Disc length: 1787 seconds
#
# Revision: 0
# Processed by: cddbd v1.5.2PL0 Copyright (c) Steve Scherf et al.
# Submitted via: ExactAudioCopy v1.1
#
DISCID=7806f909
DTITLE=Otis Clay - I Can't Take It
DYEAR=1977
DGENRE=R&B
TTITLE0=Pussy Footing Around
TTITLE1=Too Much Mystery
TTITLE2=I Can't Take It
TTITLE3=Home Is Where The Heart Is
TTITLE4=I've Got To Find A Way (To Get You Back)
TTITLE5=Slow And Easy
TTITLE6=House Ain't Home (Without A Woman)
TTITLE7=Keep On Loving Me
TTITLE8=Born To Be With You
EXTD=
EXTT0=
EXTT1=
EXTT2=
EXTT3=
EXTT4=
EXTT5=
EXTT6=
EXTT7=
EXTT8=
PLAYORDER=
